<svg height="152" width="189" xmlns="http://www.w3.org/2000/svg"><g fill="none" fill-rule="evenodd"><path d="M75.645 75.814h37.823v37.767H75.645z" fill="#fafafa"/><path d="M92.192 85.256h4.728v18.884h-4.728z" fill="#000"/><path d="M38.022 75.561h37.822v37.768H38.022z" fill="#161c38"/><path d="M54.569 85.003h4.728v18.884h-4.728z" fill="#fff"/><path d="M112.978 113.556h37.823v37.768h-37.823z" fill="#161c38"/><path d="M129.526 122.998h4.728v18.884h-4.728z" fill="#fff"/><path d="M37.822 113.581h37.823v37.768H37.823z" fill="#b035c9"/><path d="M56.734 139.547c3.916 0 7.091-3.17 7.091-7.082 0-3.91-3.175-7.081-7.091-7.081-3.917 0-7.092 3.17-7.092 7.081 0 3.911 3.175 7.082 7.092 7.082zm0 4.72c-6.528 0-11.82-5.284-11.82-11.802s5.292-11.802 11.82-11.802c6.527 0 11.82 5.284 11.82 11.802s-5.293 11.802-11.82 11.802z" fill="#fff" fill-rule="nonzero"/><path d="M0 75.814h37.822v37.767H0z" fill="#161c38"/><path d="M18.911 101.78c3.917 0 7.092-3.171 7.092-7.082s-3.175-7.082-7.092-7.082c-3.916 0-7.091 3.17-7.091 7.082 0 3.91 3.175 7.081 7.091 7.081zm0 4.72c-6.527 0-11.82-5.284-11.82-11.802 0-6.519 5.293-11.803 11.82-11.803 6.528 0 11.82 5.284 11.82 11.803 0 6.518-5.292 11.802-11.82 11.802z" fill="#fff" fill-rule="nonzero"/><path d="M0 113.581h37.822v37.768H0z" fill="#161c38"/><path d="M18.911 139.547c3.917 0 7.092-3.17 7.092-7.082 0-3.91-3.175-7.081-7.092-7.081-3.916 0-7.091 3.17-7.091 7.081 0 3.911 3.175 7.082 7.091 7.082zm0 4.72c-6.527 0-11.82-5.284-11.82-11.802s5.293-11.802 11.82-11.802c6.528 0 11.82 5.284 11.82 11.802s-5.292 11.802-11.82 11.802z" fill="#fff" fill-rule="nonzero"/><path d="M75.645 113.581h37.823v37.768H75.645z" fill="#b035c9"/><path d="M94.556 139.547c3.917 0 7.092-3.17 7.092-7.082 0-3.91-3.175-7.081-7.092-7.081-3.916 0-7.091 3.17-7.091 7.081 0 3.911 3.175 7.082 7.091 7.082zm0 4.72c-6.527 0-11.82-5.284-11.82-11.802s5.293-11.802 11.82-11.802c6.528 0 11.82 5.284 11.82 11.802s-5.292 11.802-11.82 11.802z" fill="#fff" fill-rule="nonzero"/><g><path d="M75.645 38.047h37.823v37.767H75.645z" fill="#b035c9"/><path d="M94.556 64.012c3.917 0 7.092-3.17 7.092-7.082 0-3.91-3.175-7.081-7.092-7.081-3.916 0-7.091 3.17-7.091 7.081 0 3.911 3.175 7.082 7.091 7.082zm0 4.72c-6.527 0-11.82-5.284-11.82-11.802s5.293-11.802 11.82-11.802c6.528 0 11.82 5.284 11.82 11.802s-5.292 11.803-11.82 11.803z" fill="#fff" fill-rule="nonzero"/></g><g><path d="M38 38h37.822v37.767H38z" fill="#fafafa"/><path d="M56.911 63.965c3.917 0 7.092-3.17 7.092-7.081 0-3.911-3.175-7.082-7.092-7.082-3.916 0-7.091 3.17-7.091 7.082 0 3.91 3.175 7.081 7.091 7.081zm0 4.721c-6.527 0-11.82-5.284-11.82-11.802 0-6.519 5.293-11.803 11.82-11.803 6.528 0 11.82 5.284 11.82 11.803 0 6.518-5.292 11.802-11.82 11.802z" fill="#161c38" fill-rule="nonzero"/></g><g><path d="M151 0h37.822v37.767H151z" fill="#fafafa"/><path d="M169.911 25.965c3.917 0 7.092-3.17 7.092-7.081 0-3.911-3.175-7.082-7.092-7.082-3.916 0-7.091 3.17-7.091 7.082 0 3.91 3.175 7.081 7.091 7.081zm0 4.721c-6.527 0-11.82-5.284-11.82-11.802 0-6.519 5.293-11.803 11.82-11.803 6.528 0 11.82 5.284 11.82 11.803 0 6.518-5.292 11.802-11.82 11.802z" fill="#161c38" fill-rule="nonzero"/></g></g></svg>