<svg id="图层_1" data-name="图层 1" xmlns="http://www.w3.org/2000/svg" viewBox="0 0 180.5 40.54"><defs><style>.cls-1{font-size:35px;fill:#333;font-family:DINCondensed-Bold, DIN Condensed;font-weight:700;}.cls-2{fill:#1296db;}</style></defs><title>logo</title><text class="cls-1" transform="matrix(1.07, 0, -0.19, 0.98, 42.87, 29.81)">MagicMooc</text><path class="cls-2" d="M853.31,510.89,833.93,504c-1.21-.46-1-.46-2.16,0l-19.49,6.87c-1.19.45-1.19,1.19,0,1.64l4.63,1.64c-2,2.06-2.19,4.22-2.21,6.71a2.24,2.24,0,0,0-.19,4,17.1,17.1,0,0,1-4,8.85,9.05,9.05,0,0,0,3.13,1.84c3.86-1.73,3.39-6.31,3.09-10.87a2.24,2.24,0,0,0,.88-1.79,2.19,2.19,0,0,0-1-1.86c.07-2.44.58-4.63,2.33-6a.29.29,0,0,1,.13-.1l2.8,1,10.07,3.56c1.21.45,1,.45,2.16,0l19.22-6.87c1.21-.46,1.2-1.2,0-1.65Zm-6.79,8.62v12c-.17,2.91-10,4-10,4h-6s-9.85-1.34-10-4v-12l12,4h2Z" transform="translate(-810.5 -503.61)"/></svg>